# xmcd CD database file
#
# Track frame offsets:
#	150
#	13982
#	31337
#	52050
#	67535
#	85062
#	101960
#	117285
#	135570
#	150940
#	165632
#	184152
#	199937
#	215822
#	240115
#	259162
#
# Disc length: 3615 seconds
#
# Revision: 1
# Processed by: cddbd v1.4PL0 Copyright (c) Steve Scherf et al.
# Submitted via: CDex 1.50Beta7
#
DISCID=d60e1d10
DTITLE=Varios - Get in the Mood Time for Tenderness
DYEAR=1993
DGENRE=New Age
TTITLE0=Christian Wilckens-Chinese mountain
TTITLE1=Birdy-Solitary fields
TTITLE2=Chester Phillips Band-Carlos
TTITLE3=Helmuth Franke-Song for cosi
TTITLE4=Bernd Roger-Acoustic dream
TTITLE5=Mike Moore Company-Heartbreak revival
TTITLE6=Carte Blanche-Rain on your face
TTITLE7=Stephan Liebold-mellow dye
TTITLE8=Christian Wilckens-Falling leaves
TTITLE9=Carte Blanche-Silence
TTITLE10=Stephan Liebold-Windfall
TTITLE11=Mike Moore Company-Eyes of a child
TTITLE12=Helmuth Franke-Soft romance
TTITLE13=Chester Phillips Band-Palm beach
TTITLE14=Birdy-Crystal paintings
TTITLE15=Christian Wilchens-The dreams I keep
EXTD=YEAR: 1993
EXTT0=
EXTT1=
EXTT2=
EXTT3=
EXTT4=
EXTT5=
EXTT6=
EXTT7=
EXTT8=
EXTT9=
EXTT10=
EXTT11=
EXTT12=
EXTT13=
EXTT14=
EXTT15=
PLAYORDER=
